<?xml version="1.0" standalone="no"?><!DOCTYPE svg PUBLIC "-//W3C//DTD SVG 1.1//EN" "http://www.w3.org/Graphics/SVG/1.1/DTD/svg11.dtd"><svg t="1769077363546" class="icon" viewBox="0 0 1024 1024" version="1.1" xmlns="http://www.w3.org/2000/svg" p-id="1013" width="64" height="64" xmlns:xlink="http://www.w3.org/1999/xlink"><path d="M514.133333 981.333333c-121.6 0-241.066667-23.466667-354.133333-68.266666-40.533333-14.933333-59.733333-59.733333-46.933333-98.133334 14.933333-40.533333 59.733333-61.866667 100.266666-46.933333 2.133333 0 4.266667 2.133333 4.266667 2.133333 93.866667 38.4 194.133333 57.6 296.533333 57.6 102.4 0 202.666667-19.2 296.533334-57.6 40.533333-14.933333 85.333333 6.4 98.133333 46.933334 12.8 38.4-4.266667 81.066667-40.533333 96-113.066667 44.8-232.533333 68.266667-354.133334 68.266666z m128-392.533333h-256c-42.666667 0-76.8-34.133333-76.8-76.8s34.133333-76.8 76.8-76.8H640c42.666667 0 76.8 34.133333 76.8 76.8s-32 76.8-74.666667 76.8z m196.266667-328.533333c-10.666667 0-19.2-2.133333-29.866667-6.4-189.866667-76.8-403.2-76.8-593.066666 0-38.4 17.066667-85.333333 0-102.4-38.4-17.066667-38.4 0-85.333333 38.4-102.4 2.133333 0 4.266667-2.133333 4.266666-2.133334C381.866667 19.2 635.733333 19.2 864 110.933333c38.4 17.066667 57.6 61.866667 42.666667 100.266667-8.533333 29.866667-36.266667 49.066667-68.266667 49.066667z" fill="#44c9c1" p-id="1014"></path></svg>