<svg width="64" height="67" viewBox="0 0 64 67" fill="none" xmlns="http://www.w3.org/2000/svg">
<path d="M18.4134 0.967975C18.1007 1.29206 17.8662 3.80374 17.8662 6.55849C17.8662 11.4198 17.8662 11.5008 15.3648 12.23C13.4106 12.8782 12.6289 13.6884 12.0817 15.6329C11.3 18.2256 11.2219 18.2256 6.21905 18.4687C1.91976 18.7118 1.0599 18.9548 0.825391 20.2512C0.434546 22.4388 1.99793 23.168 7.15708 23.168H11.6127V27.2191V31.1891L6.37539 31.4322C1.91976 31.6753 1.0599 31.9183 0.825391 33.2147C0.434546 35.4023 1.99793 36.1315 7.15708 36.1315H11.6127V40.1826V44.1527L6.37539 44.3957C1.68525 44.6388 1.0599 44.8008 1.0599 46.2592C1.0599 47.7176 1.68525 47.8797 6.37539 48.1227C11.2219 48.3658 11.6127 48.4468 11.6127 50.2293C11.6127 52.3359 13.5669 54.4424 15.912 54.9286C17.2409 55.1716 17.4754 55.9008 17.7099 60.195C18.1789 69.5935 22.5564 68.8643 22.5564 59.4658V54.6855L26.3085 54.9286L29.9824 55.1716L30.2169 60.6001C30.3733 64.084 30.7641 66.1096 31.4676 66.3527C33.4219 67.1629 34.2036 65.6235 34.4381 60.4381L34.6726 55.1716H38.581H42.4895L42.8803 60.8432C43.2712 66.3527 43.4275 66.6767 46.0071 66.2716C46.3979 66.1906 46.7888 63.6789 46.9451 60.6811C47.1796 55.9008 47.4141 55.1716 48.743 54.9286C51.0881 54.4424 53.0423 52.3359 53.0423 50.2293C53.0423 48.4468 53.4331 48.3658 58.3578 48.1227C63.0479 47.8797 63.5951 47.7176 63.8296 46.0972C64.0641 44.3957 63.7515 44.3147 58.7486 44.0716L53.4331 43.8286V39.7775V35.7264L58.7486 35.4833C63.7515 35.2402 64.0641 35.1592 63.8296 33.4578C63.5951 31.8373 63.0479 31.6753 58.3578 31.4322L53.0423 31.1891V27.2191V23.168H57.5761C62.6571 23.168 64.2205 22.4388 63.8296 20.2512C63.5951 18.9548 62.7353 18.7118 58.2796 18.4687C53.355 18.2256 53.0423 18.1446 53.0423 16.2811C53.0423 14.1745 50.4627 11.8249 48.1958 11.8249C47.0233 11.8249 46.7888 11.0957 46.7888 6.55849C46.7888 2.58841 46.4761 1.13002 45.6162 0.805932C43.3493 -0.166331 42.0986 2.10228 42.0986 7.04462V11.8249H38.1902H34.3599L34.1254 6.31542C33.8909 1.53513 33.7345 0.886953 32.3275 0.886953C30.9205 0.886953 30.7641 1.53513 30.5296 6.31542L30.2951 11.8249H26.074H21.8529L21.6184 6.39644C21.462 2.1833 21.0712 0.886953 20.2113 0.643888C19.5078 0.562866 18.7261 0.643888 18.4134 0.967975ZM50.2282 16.3621C51.1662 18.8738 50.7754 50.3103 49.7592 51.3636C48.4303 52.741 16.2247 52.741 14.8958 51.3636C13.8796 50.3103 13.4888 18.8738 14.4268 16.3621C14.8176 15.2278 17.1627 15.0658 32.3275 15.0658C47.4923 15.0658 49.8374 15.2278 50.2282 16.3621Z" fill="white"/>
<path d="M20.3675 20.5753C19.664 21.1425 19.4295 24.3023 19.5858 33.7819L19.8204 46.2593H32.3274H44.8344L45.0689 33.7819C45.2253 24.3023 44.9908 21.1425 44.2873 20.5753C43.7401 20.2512 38.3464 19.9272 32.3274 19.9272C26.3084 19.9272 20.9147 20.2512 20.3675 20.5753ZM42.0985 33.7009V44.2337H32.3274H22.5563V33.7009V23.168H32.3274H42.0985V33.7009Z" fill="white"/>
</svg>
