<svg width="48" height="48" viewBox="0 0 48 48" fill="none" xmlns="http://www.w3.org/2000/svg">
<g clip-path="url(#clip0_11224_215988)">
<path d="M24.701 19.4079H15.6059C14.7103 19.4079 14 18.6946 14 17.8295V12.5784C14 11.6981 14.7258 11 15.6059 11H23.0951C23.9907 11 24.701 11.7133 24.701 12.5784V19.4079Z" fill="#FD5402"/>
<path d="M34.4557 28.5668H24.7109V19.3945H34.4557C35.3987 19.3945 36.1763 20.1713 36.1763 21.1133V26.8481C36.1763 27.8066 35.3987 28.5668 34.4557 28.5668Z" fill="#FD5402"/>
<path d="M23.0951 36.9998H15.6059C14.7258 36.9998 14 36.2878 14 35.4242V30.1674C14 29.3039 14.7258 28.5918 15.6059 28.5918H24.701V35.4242C24.701 36.2878 23.9753 36.9998 23.0951 36.9998Z" fill="#FD5402"/>
</g>
<defs>
<clipPath id="clip0_11224_215988">
<rect width="48" height="48" rx="24" fill="white"/>
</clipPath>
</defs>
</svg>
